<?xml version="1.0" standalone="no"?>
<!DOCTYPE svg PUBLIC "-//W3C//DTD SVG 20010904//EN"
 "http://www.w3.org/TR/2001/REC-SVG-20010904/DTD/svg10.dtd">
<svg version="1.0" xmlns="http://www.w3.org/2000/svg"
 width="225.000000pt" height="225.000000pt" viewBox="0 0 225.000000 225.000000"
 preserveAspectRatio="xMidYMid meet">

<g transform="translate(0.000000,225.000000) scale(0.100000,-0.100000)"
fill="#000000" stroke="none">
<path d="M0 1243 c0 -995 0 -1006 19 -989 11 10 25 15 31 11 7 -4 3 -14 -13
-29 -45 -41 -43 -63 8 -87 25 -12 30 -20 31 -52 1 -24 -3 -37 -11 -37 -8 0
-11 -8 -8 -21 4 -12 0 -25 -8 -31 -10 -7 -5 -8 16 -3 40 9 40 9 28 50 -9 29
-9 35 4 35 12 0 14 -10 11 -45 l-3 -45 67 0 c60 0 67 2 62 18 -5 16 -5 16 6
-1 18 -27 30 -20 23 15 l-6 31 21 -21 c12 -12 22 -27 22 -32 0 -21 40 -9 69
21 l31 30 -6 -33 c-4 -22 -3 -29 4 -19 7 10 11 10 17 1 8 -13 67 -10 77 5 4 5
7 19 7 30 l0 20 -9 -20 c-7 -17 -9 -17 -9 -2 -1 10 -9 17 -20 17 -26 0 -32 11
-22 46 6 21 14 29 29 28 18 0 20 4 16 23 -7 24 9 32 23 11 5 -9 9 -4 13 14 5
27 6 28 34 13 37 -20 40 -19 16 5 l-21 21 23 19 c13 11 17 19 11 20 -18 0 -16
24 5 62 10 18 17 38 15 43 -2 6 5 20 15 30 22 24 34 52 37 83 1 12 5 25 8 28
12 12 -14 46 -45 58 -28 12 -29 14 -13 30 10 9 25 14 35 11 20 -6 37 22 22 37
-6 6 0 19 15 34 36 36 22 40 -38 10 -29 -14 -57 -26 -61 -26 -5 0 -44 -18 -89
-40 -88 -44 -193 -126 -182 -144 3 -6 3 -8 -1 -4 -10 8 -36 -14 -29 -24 2 -4
-4 -5 -13 -1 -13 5 -15 3 -9 -7 6 -9 4 -11 -5 -5 -10 6 -12 3 -7 -14 4 -16 2
-20 -6 -13 -8 7 -24 0 -50 -23 -32 -27 -35 -34 -23 -45 9 -6 20 -9 26 -5 5 3
10 -1 10 -9 0 -26 -17 -27 -34 -1 -17 26 -42 25 -32 -2 3 -8 1 -11 -5 -8 -12
8 -49 -22 -49 -39 0 -7 4 -6 8 2 6 9 13 7 28 -10 16 -19 16 -20 1 -9 -15 12
-19 12 -30 0 -7 -8 -11 -12 -10 -10 2 2 -4 9 -13 15 -13 10 0 26 88 107 205
189 257 228 377 285 l114 54 -49 51 c-27 28 -58 60 -70 72 -51 54 -144 205
-144 235 0 8 -6 28 -14 45 -37 85 -48 144 -50 267 -1 134 12 211 58 330 30 79
55 128 84 165 12 15 22 31 22 35 0 12 109 119 170 167 30 24 60 48 66 52 35
28 200 95 279 114 11 3 -208 5 -487 6 l-508 1 0 -1007z m647 -625 c-3 -8 -6
-5 -6 6 -1 11 2 17 5 13 3 -3 4 -12 1 -19z m-102 -118 c3 -5 -1 -10 -10 -10
-9 0 -13 5 -10 10 3 6 8 10 10 10 2 0 7 -4 10 -10z m-109 -213 c3 -3 4 -14 0
-23 -5 -13 -9 -14 -21 -4 -19 16 -69 -6 -86 -37 -7 -13 -18 -23 -26 -23 -17 0
-17 15 2 30 8 7 15 21 15 31 0 10 7 22 15 27 18 9 91 9 101 -1z m-292 -13 c5
-14 4 -15 -9 -4 -17 14 -19 20 -6 20 5 0 12 -7 15 -16z m411 -5 c5 -6 3 -9 -7
-9 -9 0 -18 -5 -20 -11 -4 -12 -58 -2 -58 12 0 5 7 6 15 3 10 -4 15 0 15 11 0
12 5 15 23 10 12 -4 26 -11 32 -16z m-155 -35 c0 -8 -4 -12 -10 -9 -5 3 -10
10 -10 16 0 5 5 9 10 9 6 0 10 -7 10 -16z m-126 -75 c-8 -14 -34 -11 -34 4 0
8 3 17 7 20 9 9 34 -13 27 -24z m26 -39 c21 -7 19 -8 -17 -9 -24 -1 -43 4 -43
9 0 12 24 12 60 0z m60 -34 c0 -3 -4 -8 -10 -11 -5 -3 -10 -1 -10 4 0 6 5 11
10 11 6 0 10 -2 10 -4z m-43 -48 c-3 -8 -6 -5 -6 6 -1 11 2 17 5 13 3 -3 4
-12 1 -19z"/>
<path d="M1395 2231 c107 -27 191 -69 313 -157 113 -82 225 -244 292 -424 22
-60 24 -79 24 -240 1 -195 -9 -246 -71 -375 -18 -38 -33 -76 -33 -83 0 -7 -5
-10 -11 -6 -7 4 -4 -7 7 -24 10 -18 32 -38 49 -47 16 -8 41 -30 55 -50 15 -20
48 -45 79 -60 30 -15 76 -49 103 -78 l48 -51 0 807 0 807 -462 -1 -463 0 70
-18z"/>
<path d="M998 1920 c-96 -21 -132 -36 -123 -50 3 -6 -1 -7 -9 -4 -18 7 -126
-99 -179 -177 -29 -42 -40 -71 -47 -120 -20 -134 -14 -146 58 -120 l51 19 5
-31 c3 -18 7 -55 10 -84 6 -59 30 -103 56 -103 34 0 42 25 36 112 -8 120 -8
120 6 129 9 6 6 9 -9 9 -12 0 -25 5 -28 10 -4 6 -10 8 -14 6 -4 -3 -13 -1 -21
5 -13 7 -13 9 0 9 17 0 44 52 46 90 3 52 22 132 33 143 6 6 11 17 11 23 0 7
11 25 25 40 14 15 24 33 21 40 -3 9 6 11 30 9 22 -1 41 4 51 13 10 11 37 16
87 17 40 1 78 5 83 8 13 8 44 -2 58 -19 6 -7 29 -22 52 -34 50 -26 47 -40 -8
-40 -32 0 -39 4 -39 19 0 13 -13 24 -40 35 -44 18 -78 12 -59 -10 6 -7 8 -18
4 -24 -3 -5 0 -10 9 -10 8 0 16 4 18 9 4 13 37 18 37 6 1 -5 -2 -10 -6 -10
-16 -1 -48 -24 -41 -30 3 -3 20 -7 37 -7 36 -1 51 -16 30 -29 -20 -12 -31 -11
-23 3 4 7 3 8 -4 4 -6 -4 -9 -13 -5 -21 6 -16 -22 -21 -31 -6 -3 5 -16 7 -27
4 -21 -6 -21 -6 2 -19 13 -7 32 -13 42 -14 19 0 24 -20 5 -20 -7 0 -24 -3 -37
-7 -17 -4 -22 -3 -17 5 4 7 2 12 -3 12 -11 0 -15 -19 -12 -56 1 -21 -33 -44
-68 -44 -9 0 -26 -7 -37 -15 -16 -13 -17 -16 -4 -25 8 -6 35 -10 60 -9 66 1
72 0 68 -13 -3 -8 -28 -15 -59 -18 -30 -3 -54 -9 -54 -15 0 -5 29 -13 65 -17
36 -3 106 -18 155 -33 50 -15 98 -29 108 -32 9 -3 17 -8 17 -12 0 -3 21 -7 47
-8 46 -2 80 -24 67 -44 -7 -12 1 -11 42 6 92 38 126 -51 77 -205 -16 -49 -36
-93 -50 -106 -13 -12 -23 -33 -23 -47 0 -14 -5 -29 -10 -32 -6 -4 -4 -12 5
-22 14 -14 14 -17 0 -33 -12 -13 -13 -23 -5 -44 7 -21 6 -34 -5 -56 -10 -20
-13 -43 -9 -68 4 -28 1 -48 -14 -75 -11 -21 -17 -47 -14 -62 5 -27 17 -33 25
-12 3 6 4 -3 2 -20 -4 -36 -2 -38 26 -22 18 9 39 13 86 18 7 0 10 8 7 16 -9
22 5 18 26 -7 18 -22 18 -24 -1 -56 -30 -52 -25 -68 24 -84 30 -9 43 -19 45
-34 3 -18 -1 -21 -24 -16 -22 4 -26 2 -21 -11 3 -9 -1 -33 -9 -54 -10 -24 -11
-34 -4 -26 13 12 40 7 40 -9 0 -13 26 -38 39 -38 6 0 11 -6 11 -14 0 -18 -26
-39 -39 -32 -13 8 -20 -5 -25 -47 -3 -20 -14 -45 -25 -56 -25 -25 -28 -46 -6
-37 13 4 14 2 5 -14 -11 -21 -5 -44 10 -35 4 3 6 -4 3 -15 -5 -20 0 -20 286
-20 l291 0 0 308 0 308 -60 60 c-64 64 -110 90 -122 71 -5 -8 -8 -7 -8 3 -1
21 -55 61 -73 54 -9 -3 -13 -12 -10 -20 4 -11 -6 -14 -43 -14 -35 0 -45 3 -34
10 8 5 25 10 38 10 14 0 21 4 17 11 -4 6 2 13 14 16 25 6 27 16 6 33 -8 7 -15
10 -15 6 0 -3 -32 25 -71 64 -40 38 -76 70 -81 70 -5 0 -23 30 -40 67 -17 37
-38 73 -48 80 -25 17 -45 105 -31 132 28 52 -2 121 -53 121 -28 0 -32 9 -41
95 -10 98 -26 168 -47 205 -26 47 -219 192 -245 184 -14 -5 -15 -4 -3 4 12 9
9 13 -15 21 -17 6 -37 15 -46 20 -35 20 -152 20 -241 1z m352 -120 c0 -5 -6
-10 -14 -10 -8 0 -18 5 -21 10 -3 6 3 10 14 10 12 0 21 -4 21 -10z m-490 -10
c0 -5 -5 -10 -11 -10 -5 0 -7 5 -4 10 3 6 8 10 11 10 2 0 4 -4 4 -10z m536 -9
c13 -10 20 -21 17 -25 -11 -11 -20 -6 -37 19 -20 30 -13 32 20 6z m-53 -11 c8
0 8 -3 0 -11 -13 -13 -43 -5 -43 12 0 6 7 8 16 5 9 -3 21 -6 27 -6z m-196 -96
c-3 -3 -12 -4 -19 -1 -8 3 -5 6 6 6 11 1 17 -2 13 -5z m-308 -274 c11 -72 11
-93 1 -105 -33 -40 -62 4 -68 107 -4 74 -4 76 19 81 13 2 27 5 30 6 3 0 11
-39 18 -89z m872 -441 c17 -17 29 -32 26 -35 -5 -5 -67 50 -67 60 0 12 10 6
41 -25z m-164 -131 c-3 -8 -6 -5 -6 6 -1 11 2 17 5 13 3 -3 4 -12 1 -19z m283
-14 c0 -2 -7 -4 -15 -4 -8 0 -15 4 -15 10 0 5 7 7 15 4 8 -4 15 -8 15 -10z
m33 -48 c3 -8 15 -16 26 -18 15 -2 18 -7 12 -17 -7 -11 -13 -11 -32 3 -13 9
-20 16 -15 16 5 0 3 7 -4 15 -7 9 -8 15 -2 15 5 0 12 -6 15 -14z m-287 -43
c-10 -10 -19 5 -10 18 6 11 8 11 12 0 2 -7 1 -15 -2 -18z m456 -3 c15 0 28 -5
28 -10 0 -6 -6 -10 -12 -9 -19 3 -68 -22 -68 -35 0 -6 -23 -22 -50 -35 -28
-14 -50 -29 -50 -33 0 -4 -9 -8 -19 -8 -11 0 -23 -5 -27 -11 -3 -6 -15 -8 -27
-5 -11 3 -29 1 -39 -5 -10 -5 -18 -6 -18 -2 1 11 26 43 33 43 4 0 16 8 27 18
11 9 25 18 30 18 6 1 15 2 20 3 6 0 10 8 10 17 0 8 5 12 10 9 6 -3 10 -1 10 4
0 6 7 11 15 11 26 0 84 33 78 44 -3 6 0 5 8 -1 7 -7 26 -13 41 -13z m-442 -22
c0 -9 4 -8 10 2 8 12 10 11 10 -7 0 -13 -5 -23 -11 -23 -15 0 -39 26 -32 34
10 10 23 7 23 -6z m-33 -43 c0 -8 -6 -15 -14 -15 -7 0 -13 -5 -13 -12 0 -6 -3
-9 -6 -6 -6 7 17 48 27 48 3 0 6 -7 6 -15z m33 -35 c0 -5 -4 -10 -10 -10 -5 0
-10 5 -10 10 0 6 5 10 10 10 6 0 10 -4 10 -10z m623 -317 c-7 -2 -19 -2 -25 0
-7 3 -2 5 12 5 14 0 19 -2 13 -5z m-453 -213 c0 -5 -4 -10 -9 -10 -6 0 -13 5
-16 10 -3 6 1 10 9 10 9 0 16 -4 16 -10z"/>
<path d="M998 1753 c12 -2 30 -2 40 0 9 3 -1 5 -23 4 -22 0 -30 -2 -17 -4z"/>
<path d="M985 1265 c-16 -7 -39 -17 -50 -21 -19 -7 -18 -8 4 -12 13 -2 33 1
45 7 12 5 41 17 66 25 l45 15 -40 0 c-22 0 -53 -6 -70 -14z"/>
<path d="M671 1215 c3 -13 15 -18 52 -19 39 -1 45 0 34 11 -7 8 -30 16 -51 20
-33 5 -38 3 -35 -12z"/>
<path d="M990 1220 c-11 -7 -11 -11 -1 -24 8 -9 22 -16 32 -16 10 0 21 -4 24
-10 10 -16 25 -12 25 8 0 14 2 15 10 2 6 -10 10 -11 10 -2 0 7 15 12 43 12 63
1 24 19 -55 26 -35 3 -65 7 -68 9 -3 2 -12 0 -20 -5z"/>
<path d="M796 1179 c4 -7 -5 -9 -26 -5 -31 4 -70 -10 -70 -26 0 -5 9 -8 20 -8
11 0 20 -4 20 -10 0 -16 30 -12 36 5 4 9 20 16 38 16 17 1 23 3 13 6 -9 2 -15
8 -12 13 3 4 -2 11 -11 14 -9 3 -12 2 -8 -5z"/>
<path d="M732 1106 c13 -13 22 -15 35 -7 16 9 16 10 1 11 -9 0 -25 3 -35 7
-17 7 -17 6 -1 -11z"/>
<path d="M930 961 c-23 -6 -23 -8 -6 -14 23 -9 59 1 51 14 -7 10 -9 10 -45 0z"/>
<path d="M895 930 c-3 -5 -1 -10 4 -10 6 0 11 5 11 10 0 6 -2 10 -4 10 -3 0
-8 -4 -11 -10z"/>
<path d="M830 911 c13 -9 13 -12 1 -20 -12 -8 -12 -12 2 -26 16 -15 17 -15 24
1 7 19 -7 46 -28 52 -11 3 -11 1 1 -7z"/>
<path d="M880 869 c0 -5 5 -7 10 -4 6 3 10 8 10 11 0 2 -4 4 -10 4 -5 0 -10
-5 -10 -11z"/>
<path d="M780 836 c0 -14 5 -28 10 -31 6 -3 10 5 10 19 0 14 -4 28 -10 31 -6
3 -10 -5 -10 -19z"/>
<path d="M850 719 c0 -5 5 -7 10 -4 6 3 10 8 10 11 0 2 -4 4 -10 4 -5 0 -10
-5 -10 -11z"/>
<path d="M816 707 c3 -10 9 -15 12 -12 3 3 0 11 -7 18 -10 9 -11 8 -5 -6z"/>
<path d="M646 581 c-4 -7 -5 -15 -2 -18 9 -9 19 4 14 18 -4 11 -6 11 -12 0z"/>
<path d="M1482 560 c0 -14 2 -19 5 -12 2 6 2 18 0 25 -3 6 -5 1 -5 -13z"/>
<path d="M1435 520 c-3 -11 -10 -20 -15 -20 -4 0 -10 -6 -13 -13 -3 -8 4 -13
22 -12 31 0 55 33 39 52 -15 18 -26 16 -33 -7z"/>
<path d="M1360 423 c-19 -18 -38 -33 -43 -33 -5 0 -22 -11 -39 -25 -24 -20
-26 -25 -11 -26 14 0 14 -2 3 -6 -8 -3 -22 -11 -30 -18 -20 -17 -94 -30 -85
-16 3 6 0 11 -8 11 -8 0 -17 -8 -19 -18 -4 -13 -15 -19 -34 -20 -16 -1 -39 -4
-52 -6 -13 -3 -20 -1 -17 5 13 20 -15 8 -32 -15 -19 -24 -19 -24 -44 -5 -28
22 -113 24 -105 2 3 -7 1 -15 -4 -18 -5 -3 -10 5 -12 17 -2 13 -11 24 -21 26
-16 3 -17 1 -6 -16 10 -17 10 -24 -2 -38 -13 -16 -12 -17 14 -10 31 7 32 4 15
-25 -10 -17 -10 -23 0 -26 6 -3 12 -9 12 -15 0 -6 -6 -5 -15 2 -9 7 -19 10
-22 6 -4 -4 -2 -11 5 -15 16 -10 12 -72 -5 -78 -7 -3 -13 -9 -13 -14 0 -4 6
-6 13 -3 7 2 19 -7 27 -21 l13 -25 196 1 c108 0 190 3 184 6 -24 9 16 53 48
53 27 0 28 -1 17 -25 -6 -14 -8 -28 -5 -31 8 -9 33 18 31 34 -1 6 -2 17 -3 22
0 6 -18 10 -38 10 -21 0 -33 4 -28 8 6 4 11 18 13 32 4 24 3 25 -12 5 -12 -16
-15 -17 -16 -4 0 9 10 27 22 40 14 17 19 19 15 6 -5 -13 -1 -17 15 -17 12 0
29 -7 39 -16 16 -15 17 -14 12 5 -3 11 -9 19 -13 16 -14 -8 -32 23 -25 44 3
11 15 23 27 26 14 5 17 10 9 18 -16 16 -14 52 4 67 11 9 15 9 15 1 0 -7 4 -9
10 -6 5 3 7 20 3 37 -4 23 -2 34 11 43 9 7 16 17 15 21 -1 5 1 17 5 26 15 33
1 33 -34 1z m-50 -73 c0 -5 -4 -10 -10 -10 -5 0 -10 5 -10 10 0 6 5 10 10 10
6 0 10 -4 10 -10z m-382 -110 c10 -17 10 -21 -2 -26 -17 -6 -56 12 -56 26 0 5
7 7 15 4 8 -4 15 -1 15 5 0 17 14 13 28 -9z m379 -12 c-3 -8 -6 -5 -6 6 -1 11
2 17 5 13 3 -3 4 -12 1 -19z m-52 -28 c-3 -5 -13 -10 -21 -10 -8 0 -12 5 -9
10 3 6 13 10 21 10 8 0 12 -4 9 -10z m-355 -120 c0 -15 -7 -33 -15 -40 -12
-10 -15 -10 -15 3 0 8 -7 20 -15 27 -18 15 -19 42 -3 58 17 17 48 -14 48 -48z
m140 20 c0 -5 -12 -10 -27 -10 -22 0 -25 2 -13 10 20 13 40 13 40 0z m-24 -31
c10 -17 -13 -36 -27 -22 -12 12 -4 33 11 33 5 0 12 -5 16 -11z"/>
<path d="M865 100 c-3 -5 -1 -10 4 -10 6 0 11 5 11 10 0 6 -2 10 -4 10 -3 0
-8 -4 -11 -10z"/>
<path d="M1434 341 c3 -5 15 -7 26 -4 28 7 25 13 -6 13 -14 0 -23 -4 -20 -9z"/>
<path d="M810 293 c8 -3 18 -11 22 -17 5 -7 8 -4 8 7 0 11 -7 17 -22 16 -16 0
-18 -2 -8 -6z"/>
<path d="M851 284 c0 -11 3 -14 6 -6 3 7 2 16 -1 19 -3 4 -6 -2 -5 -13z"/>
<path d="M1350 179 c0 -5 5 -7 10 -4 6 3 10 8 10 11 0 2 -4 4 -10 4 -5 0 -10
-5 -10 -11z"/>
<path d="M740 141 c0 -6 5 -13 10 -16 6 -3 10 1 10 9 0 9 -4 16 -10 16 -5 0
-10 -4 -10 -9z"/>
<path d="M2 118 c5 -15 28 -23 28 -10 0 5 -7 13 -16 16 -10 4 -14 1 -12 -6z"/>
<path d="M1346 11 c10 -10 54 -11 54 -1 0 6 -13 9 -30 8 -16 -1 -27 -4 -24 -7z"/>
</g>
</svg>
